<?xml version="1.0" encoding="utf-8"?>
<!-- Generator: Adobe Illustrator 12.0.0, SVG Export Plug-In . SVG Version: 6.00 Build 51448)  -->
<!DOCTYPE svg PUBLIC "-//W3C//DTD SVG 1.1//EN" "http://www.w3.org/Graphics/SVG/1.1/DTD/svg11.dtd" [
	<!ENTITY ns_svg "http://www.w3.org/2000/svg">
	<!ENTITY ns_xlink "http://www.w3.org/1999/xlink">
]>
<svg  version="1.1" id="Layer_1" xmlns="&ns_svg;" xmlns:xlink="&ns_xlink;" width="359.988" height="309.584"
	 viewBox="0 0 359.988 309.584" overflow="visible" enable-background="new 0 0 359.988 309.584" xml:space="preserve">
<g>
	<path fill="#FFD52B" d="M166.35,0.734c11.88-0.94,23.83-0.87,35.73-0.39c4.27,0.14,8.26,4.41,6.86,8.91
		c0.27,95.02-0.06,190.05,0.16,285.07c-0.55,4.93,1.35,11.98-4.39,14.53c-11.88,0.94-23.84,0.86-35.73,0.39
		c-4.27-0.14-8.27-4.42-6.86-8.91c-0.27-95.02,0.06-190.05-0.16-285.07C162.5,10.324,160.61,3.285,166.35,0.734z"/>
	<path fill="#FFD52B" d="M212.96,14.225c-0.68-5.51,6.67-9.33,10.98-5.84c45.31,20.48,90.53,41.16,135.94,61.41
		c0.12,10.09,0.13,20.19,0.08,30.28c-46.02,21.09-91.54,43.27-137.31,64.91c-3.42,1.88-6.68-1.18-9.69-2.5
		c0.09-12.75,0.08-25.5,0.05-38.26c27.27-11.83,54.7-23.27,82.08-34.83c2.94-1.23,5.78-2.67,8.51-4.31
		c-30.04-12.31-60.21-24.3-90.4-36.2C213.02,37.334,212.68,25.785,212.96,14.225z"/>
	<path fill="#FFD52B" d="M134.95,136.084c4.01-1.89,8.42-0.61,12.5,0.27c-0.47,13.22-0.42,26.45-0.51,39.68
		c-22.52,8.95-44.66,18.84-67.05,28.11c-8.05,3.53-16.33,6.55-24.17,10.55c30.38,12.3,61.02,23.96,91.29,36.53
		c-0.07,12.33,0.62,24.69-0.16,37.01c-1.43,4.03-7.37,5.7-10.84,3.15c-45.29-20.42-90.44-41.2-135.88-61.31
		c-0.08-9.93-0.11-19.85-0.13-29.77c30.92-15.18,62.24-29.52,93.26-44.48C107.33,149.614,120.92,142.364,134.95,136.084z"/>
</g>
<g>
	<path fill="#B5AD8C" d="M134.88,20.024c3.98-2.4,8.4-0.8,12.17,1.13c-0.04,12.96,0.02,25.92-0.09,38.88
		c-22.53,8.94-44.67,18.84-67.07,28.11c-8.05,3.53-16.33,6.55-24.17,10.55c24.71,10.02,49.6,19.58,74.32,29.58
		c5.93,2.39,12.13,4.37,17.41,8.08c-4.08-0.88-8.49-2.16-12.5-0.27c-14.03,6.28-27.62,13.53-41.69,19.74
		c-31.2-13.57-61.93-28.19-93.13-41.75c-0.08-9.93-0.11-19.85-0.13-29.77C44.77,62.495,90.05,41.714,134.88,20.024z"/>
</g>
</svg>
